<?xml version="1.0" encoding="utf-8"?><svg xmlns="http://www.w3.org/2000/svg" xmlns:xlink="http://www.w3.org/1999/xlink"><symbol viewBox="0 0 492 492" id="back" xmlns="http://www.w3.org/2000/svg"><path d="M198.608 246.104L382.664 62.04c5.068-5.056 7.856-11.816 7.856-19.024 0-7.212-2.788-13.968-7.856-19.032l-16.128-16.12C361.476 2.792 354.712 0 347.504 0s-13.964 2.792-19.028 7.864L109.328 227.008c-5.084 5.08-7.868 11.868-7.848 19.084-.02 7.248 2.76 14.028 7.848 19.112l218.944 218.932c5.064 5.072 11.82 7.864 19.032 7.864 7.208 0 13.964-2.792 19.032-7.864l16.124-16.12c10.492-10.492 10.492-27.572 0-38.06L198.608 246.104z"/></symbol><symbol viewBox="0 0 31 30" id="check" xmlns="http://www.w3.org/2000/svg"><defs><filter id="ba" width="52.4" height="50.4" x="-11" y="-10" filterUnits="userSpaceOnUse"><feOffset dx="1.4" dy="1.4" in="SourceGraphic" result="FeOffset1177Out"/><feGaussianBlur in="FeOffset1177Out" result="FeGaussianBlur1178Out" stdDeviation="0 0"/></filter><mask id="bb" width="2" height="2" x="-1" y="-1"><path d="M-1 0h31v29H-1z"/><path d="M8.025 13.414l3.965 7.744S18.434 5.42 28.595.173c-.248 3.747-1.24 6.995.495 10.992-4.46 1-13.63 12.242-16.604 17.738-4.213-5.246-9.17-9.243-12.64-10.492z"/></mask></defs><g filter="url(#ba)"><path d="M8.025 13.414l3.965 7.744S18.434 5.42 28.595.173c-.248 3.747-1.24 6.995.495 10.992-4.46 1-13.63 12.242-16.604 17.738-4.213-5.246-9.17-9.243-12.64-10.492z" mask="url(#bb)"/><path d="M8.025 13.414l3.965 7.744S18.434 5.42 28.595.173c-.248 3.747-1.24 6.995.495 10.992-4.46 1-13.63 12.242-16.604 17.738-4.213-5.246-9.17-9.243-12.64-10.492z"/></g><path d="M8.025 13.414l3.965 7.744S18.434 5.42 28.595.173c-.248 3.747-1.24 6.995.495 10.992-4.46 1-13.63 12.242-16.604 17.738-4.213-5.246-9.17-9.243-12.64-10.492z"/><path d="M8.025 13.414l3.965 7.744S18.434 5.42 28.595.173c-.248 3.747-1.24 6.995.495 10.992-4.46 1-13.63 12.242-16.604 17.738-4.213-5.246-9.17-9.243-12.64-10.492z"/></symbol><symbol viewBox="0 0 1866 33" id="line" xmlns="http://www.w3.org/2000/svg"><path d="M15 11h1834v11H15z"/><path d="M51.625 0h18l-51.5 33h-18zm33 0h18l-51.5 33h-18zm34 0h18l-51.5 33h-18zm33 0h18l-51.5 33h-18zm33 0h18l-51.5 33h-18zm33 0h18l-51.5 33h-18zm34 0h18l-51.5 33h-18zm33 0h18l-51.5 33h-18zm33 0h18l-51.5 33h-18zm33 0h18l-51.5 33h-18zm34 0h18l-51.5 33h-18zm33 0h18l-51.5 33h-18zm33 0h18l-51.5 33h-18zm33 0h18l-51.5 33h-18zm34 0h18l-51.5 33h-18zm33 0h18l-51.5 33h-18zm33 0h18l-51.5 33h-18zm33 0h18l-51.5 33h-18zm34 0h18l-51.5 33h-18zm33 0h18l-51.5 33h-18zm33 0h18l-51.5 33h-18zm33 0h18l-51.5 33h-18zm34 0h18l-51.5 33h-18zm33 0h18l-51.5 33h-18zm33 0h18l-51.5 33h-18zm33 0h18l-51.5 33h-18zm34 0h18l-51.5 33h-18zm33 0h18l-51.5 33h-18zm33 0h18l-51.5 33h-18zm34 0h18l-51.5 33h-18zm33 0h18l-51.5 33h-18zm33 0h18l-51.5 33h-18zm33 0h18l-51.5 33h-18zm34 0h18l-51.5 33h-18zm33 0h18l-51.5 33h-18zm33 0h18l-51.5 33h-18zm33 0h18l-51.5 33h-18zm34 0h18l-51.5 33h-18zm33 0h18l-51.5 33h-18zm33 0h18l-51.5 33h-18zm33 0h18l-51.5 33h-18zm34 0h18l-51.5 33h-18zm33 0h18l-51.5 33h-18zm33 0h18l-51.5 33h-18zm33 0h18l-51.5 33h-18zm34 0h18l-51.5 33h-18zm33 0h18l-51.5 33h-18zm33 0h18l-51.5 33h-18zm33 0h18l-51.5 33h-18zm34 0h18l-51.5 33h-18zm33 0h18l-51.5 33h-18zm33 0h18l-51.5 33h-18zm33 0h18l-51.5 33h-18zm34 0h18l-51.5 33h-18zm33 0h18l-51.5 33h-18z"/><path d="M15 27h1834v6H15z"/></symbol><symbol viewBox="0 0 100 82" id="line-contact" xmlns="http://www.w3.org/2000/svg"><path d="M88.5.11h11l-87.75 82h-11z"/></symbol><symbol viewBox="0 0 492.004 492.004" id="next" xmlns="http://www.w3.org/2000/svg"><path d="M382.678 226.804L163.73 7.86C158.666 2.792 151.906 0 144.698 0s-13.968 2.792-19.032 7.86l-16.124 16.12c-10.492 10.504-10.492 27.576 0 38.064L293.398 245.9l-184.06 184.06c-5.064 5.068-7.86 11.824-7.86 19.028 0 7.212 2.796 13.968 7.86 19.04l16.124 16.116c5.068 5.068 11.824 7.86 19.032 7.86s13.968-2.792 19.032-7.86L382.678 265c5.076-5.084 7.864-11.872 7.848-19.088.016-7.244-2.772-14.028-7.848-19.108z"/></symbol><symbol viewBox="0 0 30 30" id="tel-icon" xmlns="http://www.w3.org/2000/svg"><defs><filter id="fa" width="50.4" height="50.4" x="-10" y="-10" filterUnits="userSpaceOnUse"><feOffset dx="1.4" dy="1.4" in="SourceGraphic" result="FeOffset1089Out"/><feGaussianBlur in="FeOffset1089Out" result="FeGaussianBlur1090Out" stdDeviation="0 0"/></filter><mask id="fb" width="2" height="2" x="-1" y="-1"><path d="M0 0h29v29H0z"/><path d="M13.206.003c2.783-.04 4.925.231 6.842 1.021 6.199 2.556 11.45 10.712 7.69 19.344-2.06 4.73-6.037 7.512-11.875 8.51-2.46.42-4.926-.339-6.503-.965C3.788 25.7-1.965 18.947.652 10.384 1.989 6.01 4.986 2.688 9.02 1.024c1.264-.52 2.897-.502 4.184-1.02zm.452 1.702c-1.13.447-2.415.333-3.45.738-3.85 1.503-6.499 4.275-7.803 8.338-2.37 7.384 2.565 13.444 7.408 15.43 1.394.572 3.581 1.345 5.768.965 5.223-.91 8.673-3.248 10.517-7.091.93-1.937 1.65-5.096 1.018-7.829-1.438-6.224-5.355-10.608-13.458-10.551zM8.795 6.186c1.405.008 4.242 3.097 3.845 4.652-.12.472-.506.648-.848.908-1.226.929-.375 2.612.282 3.517.819 1.125 2.505 2.484 4.072 2.78 1.24.233 1.158-1.74 2.601-1.646.764.05 1.293.588 1.81.908 2.027 1.255 3.716 2.89 1.074 4.935-2.196 1.7-5.118-.535-6.786-1.645-3.231-2.15-5.968-4.669-7.577-8.452-.421-.991-1.491-2.46-.961-3.914.444-1.22 1.582-1.3 2.488-2.043z"/></mask></defs><g filter="url(#fa)"><path d="M13.206.003c2.783-.04 4.925.231 6.842 1.021 6.199 2.556 11.45 10.712 7.69 19.344-2.06 4.73-6.037 7.512-11.875 8.51-2.46.42-4.926-.339-6.503-.965C3.788 25.7-1.965 18.947.652 10.384 1.989 6.01 4.986 2.688 9.02 1.024c1.264-.52 2.897-.502 4.184-1.02zm.452 1.702c-1.13.447-2.415.333-3.45.738-3.85 1.503-6.499 4.275-7.803 8.338-2.37 7.384 2.565 13.444 7.408 15.43 1.394.572 3.581 1.345 5.768.965 5.223-.91 8.673-3.248 10.517-7.091.93-1.937 1.65-5.096 1.018-7.829-1.438-6.224-5.355-10.608-13.458-10.551zM8.795 6.186c1.405.008 4.242 3.097 3.845 4.652-.12.472-.506.648-.848.908-1.226.929-.375 2.612.282 3.517.819 1.125 2.505 2.484 4.072 2.78 1.24.233 1.158-1.74 2.601-1.646.764.05 1.293.588 1.81.908 2.027 1.255 3.716 2.89 1.074 4.935-2.196 1.7-5.118-.535-6.786-1.645-3.231-2.15-5.968-4.669-7.577-8.452-.421-.991-1.491-2.46-.961-3.914.444-1.22 1.582-1.3 2.488-2.043z" mask="url(#fb)"/><path d="M13.206.003c2.783-.04 4.925.231 6.842 1.021 6.199 2.556 11.45 10.712 7.69 19.344-2.06 4.73-6.037 7.512-11.875 8.51-2.46.42-4.926-.339-6.503-.965C3.788 25.7-1.965 18.947.652 10.384 1.989 6.01 4.986 2.688 9.02 1.024c1.264-.52 2.897-.502 4.184-1.02zm.452 1.702c-1.13.447-2.415.333-3.45.738-3.85 1.503-6.499 4.275-7.803 8.338-2.37 7.384 2.565 13.444 7.408 15.43 1.394.572 3.581 1.345 5.768.965 5.223-.91 8.673-3.248 10.517-7.091.93-1.937 1.65-5.096 1.018-7.829-1.438-6.224-5.355-10.608-13.458-10.551zM8.795 6.186c1.405.008 4.242 3.097 3.845 4.652-.12.472-.506.648-.848.908-1.226.929-.375 2.612.282 3.517.819 1.125 2.505 2.484 4.072 2.78 1.24.233 1.158-1.74 2.601-1.646.764.05 1.293.588 1.81.908 2.027 1.255 3.716 2.89 1.074 4.935-2.196 1.7-5.118-.535-6.786-1.645-3.231-2.15-5.968-4.669-7.577-8.452-.421-.991-1.491-2.46-.961-3.914.444-1.22 1.582-1.3 2.488-2.043z"/></g><path d="M13.206.003c2.783-.04 4.925.231 6.842 1.021 6.199 2.556 11.45 10.712 7.69 19.344-2.06 4.73-6.037 7.512-11.875 8.51-2.46.42-4.926-.339-6.503-.965C3.788 25.7-1.965 18.947.652 10.384 1.989 6.01 4.986 2.688 9.02 1.024c1.264-.52 2.897-.502 4.184-1.02zm.452 1.702c-1.13.447-2.415.333-3.45.738-3.85 1.503-6.499 4.275-7.803 8.338-2.37 7.384 2.565 13.444 7.408 15.43 1.394.572 3.581 1.345 5.768.965 5.223-.91 8.673-3.248 10.517-7.091.93-1.937 1.65-5.096 1.018-7.829-1.438-6.224-5.355-10.608-13.458-10.551zM8.795 6.186c1.405.008 4.242 3.097 3.845 4.652-.12.472-.506.648-.848.908-1.226.929-.375 2.612.282 3.517.819 1.125 2.505 2.484 4.072 2.78 1.24.233 1.158-1.74 2.601-1.646.764.05 1.293.588 1.81.908 2.027 1.255 3.716 2.89 1.074 4.935-2.196 1.7-5.118-.535-6.786-1.645-3.231-2.15-5.968-4.669-7.577-8.452-.421-.991-1.491-2.46-.961-3.914.444-1.22 1.582-1.3 2.488-2.043z"/><path d="M13.206.003c2.783-.04 4.925.231 6.842 1.021 6.199 2.556 11.45 10.712 7.69 19.344-2.06 4.73-6.037 7.512-11.875 8.51-2.46.42-4.926-.339-6.503-.965C3.788 25.7-1.965 18.947.652 10.384 1.989 6.01 4.986 2.688 9.02 1.024c1.264-.52 2.897-.502 4.184-1.02zm.452 1.702c-1.13.447-2.415.333-3.45.738-3.85 1.503-6.499 4.275-7.803 8.338-2.37 7.384 2.565 13.444 7.408 15.43 1.394.572 3.581 1.345 5.768.965 5.223-.91 8.673-3.248 10.517-7.091.93-1.937 1.65-5.096 1.018-7.829-1.438-6.224-5.355-10.608-13.458-10.551zM8.795 6.186c1.405.008 4.242 3.097 3.845 4.652-.12.472-.506.648-.848.908-1.226.929-.375 2.612.282 3.517.819 1.125 2.505 2.484 4.072 2.78 1.24.233 1.158-1.74 2.601-1.646.764.05 1.293.588 1.81.908 2.027 1.255 3.716 2.89 1.074 4.935-2.196 1.7-5.118-.535-6.786-1.645-3.231-2.15-5.968-4.669-7.577-8.452-.421-.991-1.491-2.46-.961-3.914.444-1.22 1.582-1.3 2.488-2.043z"/></symbol></svg>